<?xml version="1.0" encoding="UTF-8"?>
<!DOCTYPE svg PUBLIC "-//W3C//DTD SVG 1.1//EN" "http://www.w3.org/Graphics/SVG/1.1/DTD/svg11.dtd">
<svg xmlns="http://www.w3.org/2000/svg" version="1.1" width="256px" height="256px" style="shape-rendering:geometricPrecision; text-rendering:geometricPrecision; image-rendering:optimizeQuality; fill-rule:evenodd; clip-rule:evenodd" xmlns:xlink="http://www.w3.org/1999/xlink">
<g><path style="opacity:0.999" fill="#fefefe" d="M 34.5,-0.5 C 107.5,-0.5 180.5,-0.5 253.5,-0.5C 253.833,0.5 254.5,1.16667 255.5,1.5C 255.5,74.5 255.5,147.5 255.5,220.5C 252.282,240.052 240.948,251.718 221.5,255.5C 158.5,255.5 95.5,255.5 32.5,255.5C 14.5,251.5 3.5,240.5 -0.5,222.5C -0.5,159.5 -0.5,96.5 -0.5,33.5C 3.28159,14.0518 14.9483,2.71843 34.5,-0.5 Z"/></g>
<g><path style="opacity:1" fill="#000000" d="M 30.5,7.5 C 84.8333,7.5 139.167,7.5 193.5,7.5C 193.333,21.1707 193.5,34.8374 194,48.5C 194.833,52 197,54.1667 200.5,55C 216.163,55.4999 231.83,55.6666 247.5,55.5C 247.667,111.834 247.5,168.168 247,224.5C 243.5,236 236,243.5 224.5,247C 159.833,247.667 95.1667,247.667 30.5,247C 19,243.5 11.5,236 8,224.5C 7.33333,159.833 7.33333,95.1667 8,30.5C 11.684,18.9837 19.184,11.3171 30.5,7.5 Z"/></g>
<g><path style="opacity:1" fill="#000000" d="M 205.5,17.5 C 208.044,17.1043 210.211,17.771 212,19.5C 212.723,24.398 214.056,29.0647 216,33.5C 217.458,28.5477 218.791,23.5477 220,18.5C 222.592,17.0183 224.925,17.3517 227,19.5C 227.499,24.8229 227.666,30.1563 227.5,35.5C 226.5,35.5 225.5,35.5 224.5,35.5C 224.95,15.8721 223.117,15.5387 219,34.5C 216.321,37.1715 213.988,36.8382 212,33.5C 211.299,29.0293 210.133,24.696 208.5,20.5C 207.506,25.456 207.173,30.456 207.5,35.5C 206.5,35.5 205.5,35.5 204.5,35.5C 204.211,29.4093 204.545,23.4093 205.5,17.5 Z"/></g>
<g><path style="opacity:1" fill="#000000" d="M 233.5,21.5 C 244.358,20.7123 247.358,25.2123 242.5,35C 239.518,35.498 236.518,35.6646 233.5,35.5C 233.799,37.604 233.466,39.604 232.5,41.5C 231.336,35.5276 231.17,29.5276 232,23.5C 232.717,22.9558 233.217,22.2891 233.5,21.5 Z"/></g>
<g><path style="opacity:1" fill="#fefefe" d="M 145.5,24.5 C 146.5,24.5 147.5,24.5 148.5,24.5C 148.666,30.8421 148.5,37.1754 148,43.5C 147.535,44.9308 146.701,46.0975 145.5,47C 135.214,49.6251 131.047,45.7918 133,35.5C 133.465,34.0692 134.299,32.9025 135.5,32C 138.817,31.5017 142.15,31.335 145.5,31.5C 145.5,29.1667 145.5,26.8333 145.5,24.5 Z"/></g>
<g><path style="opacity:1" fill="#fefffe" d="M 234.5,24.5 C 242.143,23.6457 244.143,26.479 240.5,33C 238.19,33.4966 235.857,33.6633 233.5,33.5C 233.264,30.3915 233.597,27.3915 234.5,24.5 Z"/></g>
<g><path style="opacity:1" fill="#fefffe" d="M 152.5,25.5 C 153.5,25.5 154.5,25.5 155.5,25.5C 155.5,26.5 155.5,27.5 155.5,28.5C 154.5,28.5 153.5,28.5 152.5,28.5C 152.5,27.5 152.5,26.5 152.5,25.5 Z"/></g>
<g><path style="opacity:1" fill="#fcfcfc" d="M 86.5,26.5 C 89.0444,26.1043 91.2111,26.771 93,28.5C 94.2941,33.9918 95.9607,39.3251 98,44.5C 99.6667,38.8333 101.333,33.1667 103,27.5C 105.064,26.4086 107.231,26.2419 109.5,27C 110.479,33.7445 110.812,40.5778 110.5,47.5C 109.5,47.5 108.5,47.5 107.5,47.5C 107.953,41.3172 107.453,35.3172 106,29.5C 104.212,34.3131 102.879,39.3131 102,44.5C 99.8225,48.0655 97.1558,48.3988 94,45.5C 92.9429,39.9274 91.2763,34.594 89,29.5C 87.5474,35.3172 87.0474,41.3172 87.5,47.5C 86.5,47.5 85.5,47.5 84.5,47.5C 84.3338,41.1579 84.5005,34.8246 85,28.5C 85.7172,27.9558 86.2172,27.2891 86.5,26.5 Z"/></g>
<g><path style="opacity:1" fill="#fefefe" d="M 116.5,31.5 C 120.182,31.3347 123.848,31.5014 127.5,32C 129.706,34.209 130.04,36.709 128.5,39.5C 124.893,40.4892 121.226,40.8226 117.5,40.5C 117.33,41.8221 117.663,42.9887 118.5,44C 121.817,44.4983 125.15,44.665 128.5,44.5C 128.5,45.5 128.5,46.5 128.5,47.5C 115.332,49.1825 111.332,43.8491 116.5,31.5 Z"/></g>
<g><path style="opacity:1" fill="#fefffe" d="M 152.5,31.5 C 153.5,31.5 154.5,31.5 155.5,31.5C 155.5,36.8333 155.5,42.1667 155.5,47.5C 154.5,47.5 153.5,47.5 152.5,47.5C 152.5,42.1667 152.5,36.8333 152.5,31.5 Z"/></g>
<g><path style="opacity:1" fill="#fefefe" d="M 160.5,31.5 C 164.514,31.3345 168.514,31.5012 172.5,32C 174.726,36.6606 175.059,41.4939 173.5,46.5C 169.541,47.6599 165.541,47.8265 161.5,47C 159.556,44.8471 159.056,42.3471 160,39.5C 163.656,38.0306 167.489,37.0306 171.5,36.5C 171.291,35.914 170.957,35.414 170.5,35C 167.183,34.5017 163.85,34.335 160.5,34.5C 160.5,33.5 160.5,32.5 160.5,31.5 Z"/></g>
<g><path style="opacity:1" fill="#000000" d="M 118.5,34.5 C 121.167,34.5 123.833,34.5 126.5,34.5C 126.67,35.8221 126.337,36.9887 125.5,38C 122.854,38.4974 120.187,38.6641 117.5,38.5C 117.433,37.0413 117.766,35.7079 118.5,34.5 Z"/></g>
<g><path style="opacity:1" fill="#000000" d="M 136.5,34.5 C 139.5,34.5 142.5,34.5 145.5,34.5C 145.664,37.1873 145.497,39.854 145,42.5C 136.755,46.0956 133.922,43.4289 136.5,34.5 Z"/></g>
<g><path style="opacity:1" fill="#000000" d="M 162.5,40.5 C 165.5,40.5 168.5,40.5 171.5,40.5C 171.5,41.8333 171.5,43.1667 171.5,44.5C 168.813,44.6641 166.146,44.4974 163.5,44C 162.663,42.9887 162.33,41.8221 162.5,40.5 Z"/></g>
<g><path style="opacity:1" fill="#fefefe" d="M 117.5,69.5 C 155.105,67.6074 176.605,85.2741 182,122.5C 186.143,123.226 188.81,125.559 190,129.5C 193.159,130.574 195.493,132.574 197,135.5C 198.103,141.756 198.603,148.089 198.5,154.5C 198.603,160.911 198.103,167.244 197,173.5C 195.363,175.81 193.196,177.31 190.5,178C 189.592,181.243 187.592,183.577 184.5,185C 179.5,185.667 174.5,185.667 169.5,185C 167.622,183.457 166.122,181.624 165,179.5C 164.333,162.833 164.333,146.167 165,129.5C 165.764,125.901 167.93,123.901 171.5,123.5C 170.815,102.297 160.482,88.1308 140.5,81C 113.907,75.7121 95.407,85.5454 85,110.5C 83.582,114.821 83.4153,119.154 84.5,123.5C 87.1334,124.301 88.9667,125.967 90,128.5C 90.6667,145.5 90.6667,162.5 90,179.5C 88.8783,181.624 87.3783,183.457 85.5,185C 80.1667,185.667 74.8333,185.667 69.5,185C 67.1898,183.363 65.6898,181.196 65,178.5C 62.1318,177.639 59.7985,175.972 58,173.5C 57.7354,164.316 57.2354,155.149 56.5,146C 57,142.5 57.5,139 58,135.5C 59.4232,132.408 61.7565,130.408 65,129.5C 66.1155,125.384 68.7822,123.051 73,122.5C 75.7812,94.5635 90.6145,76.8968 117.5,69.5 Z"/></g>
<g><path style="opacity:1" fill="#fdfdfd" d="M 103.5,202.5 C 104.5,202.5 105.5,202.5 106.5,202.5C 106.5,209.833 106.5,217.167 106.5,224.5C 105.5,224.5 104.5,224.5 103.5,224.5C 103.5,217.167 103.5,209.833 103.5,202.5 Z"/></g>
<g><path style="opacity:1" fill="#fdfdfd" d="M 86.5,205.5 C 90.5138,205.334 94.5138,205.501 98.5,206C 102.5,209.333 102.5,212.667 98.5,216C 95.5738,216.218 92.7405,216.718 90,217.5C 89.5034,219.81 89.3367,222.143 89.5,224.5C 88.5,224.5 87.5,224.5 86.5,224.5C 84.5,215.167 88.1667,211.5 97.5,213.5C 97.7135,211.856 97.3802,210.356 96.5,209C 93.1832,208.502 89.8499,208.335 86.5,208.5C 86.5,207.5 86.5,206.5 86.5,205.5 Z"/></g>
<g><path style="opacity:1" fill="#fcfcfc" d="M 110.5,209.5 C 123.004,207.175 127.004,212.008 122.5,224C 119.167,224.667 115.833,224.667 112.5,224C 110.381,221.782 110.048,219.282 111.5,216.5C 114.83,215.906 118.164,215.24 121.5,214.5C 121.291,213.914 120.957,213.414 120.5,213C 117.183,212.502 113.85,212.335 110.5,212.5C 110.5,211.5 110.5,210.5 110.5,209.5 Z"/></g>
<g><path style="opacity:1" fill="#fdfdfd" d="M 125.5,209.5 C 126.675,209.281 127.675,209.614 128.5,210.5C 129.707,214.287 131.207,217.954 133,221.5C 134.5,217.833 136,214.167 137.5,210.5C 138.5,209.167 139.5,209.167 140.5,210.5C 138.235,216.128 136.069,221.794 134,227.5C 133.388,230.032 131.888,230.865 129.5,230C 130.692,228.088 131.692,226.088 132.5,224C 131.584,223.626 130.75,223.126 130,222.5C 128.591,218.106 127.091,213.772 125.5,209.5 Z"/></g>
<g><path style="opacity:1" fill="#fefffe" d="M 144.5,209.5 C 147.518,209.335 150.518,209.502 153.5,210C 156.07,212.615 156.07,215.282 153.5,218C 150.447,218.179 147.447,218.679 144.5,219.5C 144.667,219.833 144.833,220.167 145,220.5C 148.394,221.456 151.894,221.789 155.5,221.5C 155.5,222.5 155.5,223.5 155.5,224.5C 142.453,226.466 138.787,221.466 144.5,209.5 Z"/></g>
<g><path style="opacity:1" fill="#fefffe" d="M 160.5,209.5 C 163.167,209.5 165.833,209.5 168.5,209.5C 168.5,210.5 168.5,211.5 168.5,212.5C 166.208,212.244 164.041,212.577 162,213.5C 161.825,217.211 161.325,220.878 160.5,224.5C 159.221,219.449 159.221,214.449 160.5,209.5 Z"/></g>
<g><path style="opacity:1" fill="#000000" d="M 145.5,212.5 C 147.857,212.337 150.19,212.503 152.5,213C 152.957,213.414 153.291,213.914 153.5,214.5C 150.5,215.833 147.5,215.833 144.5,214.5C 144.863,213.817 145.196,213.15 145.5,212.5 Z"/></g>
<g><path style="opacity:1" fill="#030303" d="M 113.5,217.5 C 116.167,217.5 118.833,217.5 121.5,217.5C 121.5,218.833 121.5,220.167 121.5,221.5C 118.813,221.664 116.146,221.497 113.5,221C 112.316,219.855 112.316,218.688 113.5,217.5 Z"/></g>
</svg>
