<?xml version="1.0" encoding="UTF-8"?>
<!DOCTYPE svg PUBLIC "-//W3C//DTD SVG 1.1//EN" "http://www.w3.org/Graphics/SVG/1.1/DTD/svg11.dtd">
<svg xmlns="http://www.w3.org/2000/svg" version="1.1" width="256px" height="256px" style="shape-rendering:geometricPrecision; text-rendering:geometricPrecision; image-rendering:optimizeQuality; fill-rule:evenodd; clip-rule:evenodd" xmlns:xlink="http://www.w3.org/1999/xlink">
<g><path style="opacity:1" fill="#fe00dc" d="M 34.5,-0.5 C 107.5,-0.5 180.5,-0.5 253.5,-0.5C 253.833,0.5 254.5,1.16667 255.5,1.5C 255.5,74.5 255.5,147.5 255.5,220.5C 252.282,240.052 240.948,251.718 221.5,255.5C 158.5,255.5 95.5,255.5 32.5,255.5C 14.5,251.5 3.5,240.5 -0.5,222.5C -0.5,159.5 -0.5,96.5 -0.5,33.5C 3.28159,14.0518 14.9483,2.71843 34.5,-0.5 Z"/></g>
<g><path style="opacity:1" fill="#20001c" d="M 21.5,242.5 C 24.7157,243.938 28.049,245.105 31.5,246C 95.5,246.667 159.5,246.667 223.5,246C 235,242.5 242.5,235 246,223.5C 246.5,167.834 246.667,112.168 246.5,56.5C 230.83,56.6666 215.163,56.4999 199.5,56C 196,55.1667 193.833,53 193,49.5C 192.5,35.8374 192.333,22.1707 192.5,8.5C 138.832,8.33334 85.1656,8.50001 31.5,9C 20,12.5 12.5,20 9,31.5C 8.33333,95.5 8.33333,159.5 9,223.5C 9.89517,226.951 11.0618,230.284 12.5,233.5C 9.97171,231.11 8.47171,228.11 8,224.5C 7.33333,159.833 7.33333,95.1667 8,30.5C 11.5,19 19,11.5 30.5,8C 84.8323,7.50001 139.166,7.33334 193.5,7.5C 193.333,21.1707 193.5,34.8374 194,48.5C 194.833,52 197,54.1667 200.5,55C 216.163,55.4999 231.83,55.6666 247.5,55.5C 247.667,111.834 247.5,168.168 247,224.5C 243.5,236 236,243.5 224.5,247C 159.833,247.667 95.1667,247.667 30.5,247C 26.8895,246.528 23.8895,245.028 21.5,242.5 Z"/></g>
<g><path style="opacity:1" fill="#000000" d="M 21.5,242.5 C 17.5,240.5 14.5,237.5 12.5,233.5C 11.0618,230.284 9.89517,226.951 9,223.5C 8.33333,159.5 8.33333,95.5 9,31.5C 12.5,20 20,12.5 31.5,9C 85.1656,8.50001 138.832,8.33334 192.5,8.5C 192.333,22.1707 192.5,35.8374 193,49.5C 193.833,53 196,55.1667 199.5,56C 215.163,56.4999 230.83,56.6666 246.5,56.5C 246.667,112.168 246.5,167.834 246,223.5C 242.5,235 235,242.5 223.5,246C 159.5,246.667 95.5,246.667 31.5,246C 28.049,245.105 24.7157,243.938 21.5,242.5 Z"/></g>
<g><path style="opacity:1" fill="#1b0017" d="M 205.5,17.5 C 208.044,17.1043 210.211,17.771 212,19.5C 212.723,24.398 214.056,29.0647 216,33.5C 217.485,28.5596 218.819,23.5596 220,18.5C 222.592,17.0183 224.925,17.3517 227,19.5C 227.499,24.8229 227.666,30.1563 227.5,35.5C 226.5,35.5 225.5,35.5 224.5,35.5C 224.95,15.8721 223.117,15.5387 219,34.5C 216.321,37.1715 213.988,36.8382 212,33.5C 211.299,29.0293 210.133,24.696 208.5,20.5C 207.506,25.456 207.173,30.456 207.5,35.5C 206.5,35.5 205.5,35.5 204.5,35.5C 204.211,29.4093 204.545,23.4093 205.5,17.5 Z"/></g>
<g><path style="opacity:1" fill="#1f001a" d="M 233.5,21.5 C 244.358,20.7123 247.358,25.2123 242.5,35C 239.518,35.498 236.518,35.6646 233.5,35.5C 233.799,37.604 233.466,39.604 232.5,41.5C 231.336,35.5276 231.17,29.5276 232,23.5C 232.717,22.9558 233.217,22.2891 233.5,21.5 Z"/></g>
<g><path style="opacity:1" fill="#1f001c" d="M 132.5,43.5 C 129.401,32.9254 133.401,28.592 144.5,30.5C 144.5,28.1667 144.5,25.8333 144.5,23.5C 146.167,23.5 147.833,23.5 149.5,23.5C 149.932,31.2792 149.432,38.9458 148,46.5C 147.5,47 147,47.5 146.5,48C 141.771,48.9956 137.271,48.4956 133,46.5C 132.517,45.552 132.351,44.552 132.5,43.5 Z"/></g>
<g><path style="opacity:1" fill="#fe00dc" d="M 132.5,43.5 C 131.06,33.2743 135.393,29.2743 145.5,31.5C 145.5,29.1667 145.5,26.8333 145.5,24.5C 146.5,24.5 147.5,24.5 148.5,24.5C 148.925,31.6154 148.425,38.6154 147,45.5C 143.817,47.5234 140.317,48.0234 136.5,47C 134.65,46.3103 133.316,45.1436 132.5,43.5 Z"/></g>
<g><path style="opacity:1" fill="#fe00dd" d="M 234.5,24.5 C 242.143,23.6457 244.143,26.479 240.5,33C 238.19,33.4966 235.857,33.6633 233.5,33.5C 233.264,30.3915 233.597,27.3915 234.5,24.5 Z"/></g>
<g><path style="opacity:1" fill="#20001c" d="M 94.5,30.5 C 92.1141,26.1894 88.9474,25.5227 85,28.5C 84.5005,34.8246 84.3338,41.1579 84.5,47.5C 85.5,47.5 86.5,47.5 87.5,47.5C 87.0474,41.3172 87.5474,35.3172 89,29.5C 91.0439,35.408 93.2106,41.2413 95.5,47C 97.4406,47.7429 99.2739,47.5762 101,46.5C 102.114,42.7062 103.28,39.0396 104.5,35.5C 104.369,39.6538 103.536,43.6538 102,47.5C 99.5991,48.6023 97.0991,48.769 94.5,48C 92.0477,42.7864 90.2144,37.2864 89,31.5C 88.5006,37.1569 88.3339,42.8236 88.5,48.5C 86.8333,48.5 85.1667,48.5 83.5,48.5C 83.3337,41.4921 83.5004,34.4921 84,27.5C 86.4973,25.5218 89.3307,25.0218 92.5,26C 94.0368,27.1096 94.7035,28.6096 94.5,30.5 Z"/></g>
<g><path style="opacity:1" fill="#fe00dd" d="M 152.5,25.5 C 153.5,25.5 154.5,25.5 155.5,25.5C 155.5,26.5 155.5,27.5 155.5,28.5C 154.5,28.5 153.5,28.5 152.5,28.5C 152.5,27.5 152.5,26.5 152.5,25.5 Z"/></g>
<g><path style="opacity:1" fill="#fe01dc" d="M 94.5,30.5 C 94.5941,35.4814 95.7608,40.1481 98,44.5C 99.6667,38.8333 101.333,33.1667 103,27.5C 105.498,26.2215 107.998,26.2215 110.5,27.5C 110.5,34.1667 110.5,40.8333 110.5,47.5C 109.5,47.5 108.5,47.5 107.5,47.5C 107.666,41.8236 107.499,36.1569 107,30.5C 106.333,29.1667 105.667,29.1667 105,30.5C 104.506,32.1341 104.34,33.8008 104.5,35.5C 103.28,39.0396 102.114,42.7062 101,46.5C 99.2739,47.5762 97.4406,47.7429 95.5,47C 93.2106,41.2413 91.0439,35.408 89,29.5C 87.5474,35.3172 87.0474,41.3172 87.5,47.5C 86.5,47.5 85.5,47.5 84.5,47.5C 84.3338,41.1579 84.5005,34.8246 85,28.5C 88.9474,25.5227 92.1141,26.1894 94.5,30.5 Z"/></g>
<g><path style="opacity:1" fill="#1f001c" d="M 110.5,27.5 C 111.491,34.3134 111.825,41.3134 111.5,48.5C 109.833,48.5 108.167,48.5 106.5,48.5C 106.666,42.8236 106.499,37.1569 106,31.5C 105.79,33.0581 105.29,34.3915 104.5,35.5C 104.34,33.8008 104.506,32.1341 105,30.5C 105.667,29.1667 106.333,29.1667 107,30.5C 107.499,36.1569 107.666,41.8236 107.5,47.5C 108.5,47.5 109.5,47.5 110.5,47.5C 110.5,40.8333 110.5,34.1667 110.5,27.5 Z"/></g>
<g><path style="opacity:1" fill="#1f001c" d="M 128.5,40.5 C 125.359,41.3213 122.025,41.8213 118.5,42C 121.958,43.4155 125.625,43.9155 129.5,43.5C 129.5,45.1667 129.5,46.8333 129.5,48.5C 114.497,51.0041 109.83,45.1707 115.5,31C 119.833,30.3333 124.167,30.3333 128.5,31C 129.98,32.2991 130.646,33.9658 130.5,36C 130.693,38.0081 130.026,39.5081 128.5,40.5 Z"/></g>
<g><path style="opacity:1" fill="#1f001c" d="M 151.5,30.5 C 153.167,30.5 154.833,30.5 156.5,30.5C 156.5,36.5 156.5,42.5 156.5,48.5C 154.833,48.5 153.167,48.5 151.5,48.5C 151.5,42.5 151.5,36.5 151.5,30.5 Z"/></g>
<g><path style="opacity:1" fill="#1f001c" d="M 174.5,34.5 C 175.645,38.3112 175.812,42.3112 175,46.5C 172.787,47.7595 170.287,48.4262 167.5,48.5C 159.489,49.6523 156.656,46.319 159,38.5C 162.267,36.8989 165.767,36.0655 169.5,36C 166.183,35.5017 162.85,35.335 159.5,35.5C 159.5,33.8333 159.5,32.1667 159.5,30.5C 164.179,30.3342 168.845,30.5008 173.5,31C 174.337,32.0113 174.67,33.1779 174.5,34.5 Z"/></g>
<g><path style="opacity:1" fill="#fe00dc" d="M 128.5,40.5 C 124.833,40.5 121.167,40.5 117.5,40.5C 117.33,41.8221 117.663,42.9887 118.5,44C 121.817,44.4983 125.15,44.665 128.5,44.5C 128.5,45.5 128.5,46.5 128.5,47.5C 115.501,49.3399 111.501,44.1733 116.5,32C 120.167,31.3333 123.833,31.3333 127.5,32C 129.838,34.5417 130.172,37.3751 128.5,40.5 Z"/></g>
<g><path style="opacity:1" fill="#fe00dd" d="M 152.5,31.5 C 153.5,31.5 154.5,31.5 155.5,31.5C 155.5,36.8333 155.5,42.1667 155.5,47.5C 154.5,47.5 153.5,47.5 152.5,47.5C 152.5,42.1667 152.5,36.8333 152.5,31.5 Z"/></g>
<g><path style="opacity:1" fill="#fe00dd" d="M 174.5,34.5 C 174.766,38.5705 174.433,42.5705 173.5,46.5C 169.541,47.6599 165.541,47.8265 161.5,47C 159.556,44.8471 159.056,42.3471 160,39.5C 163.656,38.0306 167.489,37.0306 171.5,36.5C 171.333,36.1667 171.167,35.8333 171,35.5C 167.606,34.5442 164.106,34.2108 160.5,34.5C 160.5,33.5 160.5,32.5 160.5,31.5C 164.514,31.3345 168.514,31.5012 172.5,32C 173.066,32.9947 173.733,33.828 174.5,34.5 Z"/></g>
<g><path style="opacity:1" fill="#1a0016" d="M 118.5,34.5 C 121.167,34.5 123.833,34.5 126.5,34.5C 126.67,35.8221 126.337,36.9887 125.5,38C 122.854,38.4974 120.187,38.6641 117.5,38.5C 117.433,37.0413 117.766,35.7079 118.5,34.5 Z"/></g>
<g><path style="opacity:1" fill="#1f001c" d="M 136.5,34.5 C 139.5,34.5 142.5,34.5 145.5,34.5C 145.664,37.1873 145.497,39.854 145,42.5C 136.755,46.0956 133.922,43.4289 136.5,34.5 Z"/></g>
<g><path style="opacity:1" fill="#000000" d="M 137.5,35.5 C 139.833,35.5 142.167,35.5 144.5,35.5C 144.662,37.5273 144.495,39.5273 144,41.5C 141.667,44.1667 139.333,44.1667 137,41.5C 136.51,39.4546 136.677,37.4546 137.5,35.5 Z"/></g>
<g><path style="opacity:1" fill="#1a0016" d="M 162.5,40.5 C 165.5,40.5 168.5,40.5 171.5,40.5C 171.5,41.8333 171.5,43.1667 171.5,44.5C 168.813,44.6641 166.146,44.4974 163.5,44C 162.663,42.9887 162.33,41.8221 162.5,40.5 Z"/></g>
<g><path style="opacity:1" fill="#20011d" d="M 160.5,79.5 C 141.284,67.7378 121.284,66.4045 100.5,75.5C 101.058,74.2101 102.058,73.3768 103.5,73C 119.5,67 135.5,67 151.5,73C 154.921,74.6985 157.921,76.8652 160.5,79.5 Z"/></g>
<g><path style="opacity:1" fill="#fe00dc" d="M 160.5,79.5 C 173.507,90.8481 180.674,105.181 182,122.5C 184.734,123.449 187.234,124.783 189.5,126.5C 189.351,127.552 189.517,128.552 190,129.5C 194.434,130.934 197.101,133.934 198,138.5C 198.935,150.238 198.602,161.905 197,173.5C 195.363,175.81 193.196,177.31 190.5,178C 189.592,181.243 187.592,183.577 184.5,185C 178.26,186.019 172.26,185.519 166.5,183.5C 166.291,182.078 165.791,180.745 165,179.5C 164.208,161.802 164.374,144.135 165.5,126.5C 167.053,124.615 169.053,123.615 171.5,123.5C 171.749,114.923 169.416,107.256 164.5,100.5C 159.109,90.9485 151.109,84.4485 140.5,81C 133.233,79.4853 125.899,79.1519 118.5,80C 115.401,80.3874 112.734,81.5541 110.5,83.5C 100.662,86.6697 93.6624,93.0031 89.5,102.5C 84.9905,108.672 82.9905,115.672 83.5,123.5C 84.5,123.5 85.5,123.5 86.5,123.5C 87.8361,125.01 89.0027,126.677 90,128.5C 90.6667,145.5 90.6667,162.5 90,179.5C 88.8783,181.624 87.3783,183.457 85.5,185C 80.1771,185.499 74.8437,185.666 69.5,185.5C 67.4042,183.567 65.9042,181.233 65,178.5C 62.1318,177.639 59.7985,175.972 58,173.5C 57.7354,164.316 57.2354,155.149 56.5,146C 56.3899,140.135 58.0566,134.968 61.5,130.5C 62.552,130.649 63.552,130.483 64.5,130C 65.7788,125.72 68.6122,123.22 73,122.5C 73.6419,116.793 74.4752,111.127 75.5,105.5C 80.9086,93.0889 89.2419,83.0889 100.5,75.5C 121.284,66.4045 141.284,67.7378 160.5,79.5 Z"/></g>
<g><path style="opacity:1" fill="#21011d" d="M 100.5,75.5 C 89.2419,83.0889 80.9086,93.0889 75.5,105.5C 79.4848,91.8508 87.8182,81.8508 100.5,75.5 Z"/></g>
<g><path style="opacity:1" fill="#20001c" d="M 164.5,100.5 C 150.526,82.1855 132.526,76.5189 110.5,83.5C 112.734,81.5541 115.401,80.3874 118.5,80C 125.899,79.1519 133.233,79.4853 140.5,81C 151.109,84.4485 159.109,90.9485 164.5,100.5 Z"/></g>
<g><path style="opacity:1" fill="#1f001c" d="M 110.5,83.5 C 101.929,88.0701 94.9287,94.4034 89.5,102.5C 93.6624,93.0031 100.662,86.6697 110.5,83.5 Z"/></g>
<g><path style="opacity:1" fill="#20001c" d="M 160.5,79.5 C 174.498,89.8187 181.998,103.819 183,121.5C 184.816,122.329 186.649,123.163 188.5,124C 189.252,124.671 189.586,125.504 189.5,126.5C 187.234,124.783 184.734,123.449 182,122.5C 180.674,105.181 173.507,90.8481 160.5,79.5 Z"/></g>
<g><path style="opacity:1" fill="#20001c" d="M 75.5,105.5 C 74.4752,111.127 73.6419,116.793 73,122.5C 68.6122,123.22 65.7788,125.72 64.5,130C 63.552,130.483 62.552,130.649 61.5,130.5C 63.5827,128.196 65.5827,125.696 67.5,123C 69.1012,122.727 70.6012,122.227 72,121.5C 72.2312,115.832 73.3979,110.499 75.5,105.5 Z"/></g>
<g><path style="opacity:1" fill="#1f001c" d="M 86.5,123.5 C 88.7525,123.916 90.2525,125.249 91,127.5C 91.6667,145.167 91.6667,162.833 91,180.5C 89.8783,182.624 88.3783,184.457 86.5,186C 80.6513,186.818 74.9846,186.652 69.5,185.5C 74.8437,185.666 80.1771,185.499 85.5,185C 87.3783,183.457 88.8783,181.624 90,179.5C 90.6667,162.5 90.6667,145.5 90,128.5C 89.0027,126.677 87.8361,125.01 86.5,123.5 Z"/></g>
<g><path style="opacity:1" fill="#20001c" d="M 165.5,126.5 C 164.374,144.135 164.208,161.802 165,179.5C 165.791,180.745 166.291,182.078 166.5,183.5C 165.21,182.942 164.377,181.942 164,180.5C 163.333,163.167 163.333,145.833 164,128.5C 164.278,127.584 164.778,126.918 165.5,126.5 Z"/></g>
<g><path style="opacity:1" fill="#1f001c" d="M 61.5,130.5 C 58.0566,134.968 56.3899,140.135 56.5,146C 57.2354,155.149 57.7354,164.316 58,173.5C 59.7985,175.972 62.1318,177.639 65,178.5C 65.9042,181.233 67.4042,183.567 69.5,185.5C 66.2175,181.064 62.0509,177.398 57,174.5C 56.7078,164.987 56.2078,155.487 55.5,146C 55.9065,142.155 56.4065,138.321 57,134.5C 57.7475,132.249 59.2475,130.916 61.5,130.5 Z"/></g>
<g><path style="opacity:1" fill="#20001c" d="M 189.5,126.5 C 191.617,128.83 194.117,130.83 197,132.5C 197.862,134.087 198.529,135.754 199,137.5C 199.939,149.904 199.606,162.238 198,174.5C 196.363,176.81 194.196,178.31 191.5,179C 190.592,182.243 188.592,184.577 185.5,186C 179.833,186.667 174.167,186.667 168.5,186C 167.619,185.292 166.953,184.458 166.5,183.5C 172.26,185.519 178.26,186.019 184.5,185C 187.592,183.577 189.592,181.243 190.5,178C 193.196,177.31 195.363,175.81 197,173.5C 198.602,161.905 198.935,150.238 198,138.5C 197.101,133.934 194.434,130.934 190,129.5C 189.517,128.552 189.351,127.552 189.5,126.5 Z"/></g>
<g><path style="opacity:1" fill="#20001c" d="M 103.5,202.5 C 103.5,209.833 103.5,217.167 103.5,224.5C 104.5,224.5 105.5,224.5 106.5,224.5C 106.5,217.167 106.5,209.833 106.5,202.5C 107.492,209.982 107.825,217.648 107.5,225.5C 105.833,225.5 104.167,225.5 102.5,225.5C 102.818,220.968 102.485,216.634 101.5,212.5C 101.171,210.009 100.171,207.843 98.5,206C 94.5138,205.501 90.5138,205.334 86.5,205.5C 86.5,206.5 86.5,207.5 86.5,208.5C 90.0419,208.187 93.3752,208.521 96.5,209.5C 92.8333,209.5 89.1667,209.5 85.5,209.5C 85.5,207.833 85.5,206.167 85.5,204.5C 90.1785,204.334 94.8452,204.501 99.5,205C 100.893,206.171 101.727,207.671 102,209.5C 102.186,206.964 102.686,204.631 103.5,202.5 Z"/></g>
<g><path style="opacity:1" fill="#fe00dc" d="M 103.5,202.5 C 104.5,202.5 105.5,202.5 106.5,202.5C 106.5,209.833 106.5,217.167 106.5,224.5C 105.5,224.5 104.5,224.5 103.5,224.5C 103.5,217.167 103.5,209.833 103.5,202.5 Z"/></g>
<g><path style="opacity:1" fill="#fb07da" d="M 101.5,212.5 C 98.9369,216.257 95.2702,217.924 90.5,217.5C 89.5318,219.607 89.1984,221.941 89.5,224.5C 88.5,224.5 87.5,224.5 86.5,224.5C 84.5,215.167 88.1667,211.5 97.5,213.5C 97.7678,211.901 97.4345,210.568 96.5,209.5C 93.3752,208.521 90.0419,208.187 86.5,208.5C 86.5,207.5 86.5,206.5 86.5,205.5C 90.5138,205.334 94.5138,205.501 98.5,206C 100.171,207.843 101.171,210.009 101.5,212.5 Z"/></g>
<g><path style="opacity:1" fill="#1f001c" d="M 110.5,209.5 C 114.311,208.355 118.311,208.188 122.5,209C 123,209.5 123.5,210 124,210.5C 125.493,208.44 127.326,208.107 129.5,209.5C 130.569,212.539 131.735,215.539 133,218.5C 133.278,217.584 133.778,216.918 134.5,216.5C 134.509,218.308 134.009,219.975 133,221.5C 131.207,217.954 129.707,214.287 128.5,210.5C 127.5,209.167 126.5,209.167 125.5,210.5C 126.246,211.736 126.579,213.07 126.5,214.5C 125.778,214.082 125.278,213.416 125,212.5C 124.8,216.753 124.3,220.92 123.5,225C 119.5,225.667 115.5,225.667 111.5,225C 109.327,222.108 108.994,218.941 110.5,215.5C 113.443,214.756 116.443,214.256 119.5,214C 116.305,213.819 113.305,213.319 110.5,212.5C 113.85,212.335 117.183,212.502 120.5,213C 120.957,213.414 121.291,213.914 121.5,214.5C 118.164,215.24 114.83,215.906 111.5,216.5C 110.048,219.282 110.381,221.782 112.5,224C 115.833,224.667 119.167,224.667 122.5,224C 127.004,212.008 123.004,207.175 110.5,209.5 Z"/></g>
<g><path style="opacity:1" fill="#1f001c" d="M 155.5,217.5 C 155.389,218.117 155.056,218.617 154.5,219C 151.833,219.333 149.167,219.667 146.5,220C 149.817,220.498 153.15,220.665 156.5,220.5C 156.5,222.167 156.5,223.833 156.5,225.5C 152.154,225.666 147.821,225.499 143.5,225C 143,224.5 142.5,224 142,223.5C 141.667,219.833 141.333,216.167 141,212.5C 139.768,216.061 138.268,219.394 136.5,222.5C 137.253,218.323 138.586,214.323 140.5,210.5C 139.5,209.167 138.5,209.167 137.5,210.5C 136.864,212.78 135.864,214.78 134.5,216.5C 134.432,212.801 135.932,210.135 139,208.5C 140.326,208.755 141.326,209.422 142,210.5C 143.996,208.941 146.329,208.274 149,208.5C 151.225,208.565 153.392,208.898 155.5,209.5C 156.8,212.309 156.8,214.976 155.5,217.5 Z"/></g>
<g><path style="opacity:1" fill="#1f001c" d="M 159.5,208.5 C 162.833,208.5 166.167,208.5 169.5,208.5C 169.5,210.167 169.5,211.833 169.5,213.5C 167.208,213.244 165.041,213.577 163,214.5C 162.501,218.152 162.335,221.818 162.5,225.5C 161.167,225.5 159.833,225.5 158.5,225.5C 158.214,219.741 158.548,214.075 159.5,208.5 Z"/></g>
<g><path style="opacity:1" fill="#fd03dc" d="M 110.5,209.5 C 123.004,207.175 127.004,212.008 122.5,224C 119.167,224.667 115.833,224.667 112.5,224C 110.381,221.782 110.048,219.282 111.5,216.5C 114.83,215.906 118.164,215.24 121.5,214.5C 121.291,213.914 120.957,213.414 120.5,213C 117.183,212.502 113.85,212.335 110.5,212.5C 110.5,211.5 110.5,210.5 110.5,209.5 Z"/></g>
<g><path style="opacity:1" fill="#fc04db" d="M 134.5,216.5 C 135.864,214.78 136.864,212.78 137.5,210.5C 138.5,209.167 139.5,209.167 140.5,210.5C 138.586,214.323 137.253,218.323 136.5,222.5C 135.065,224.598 133.898,226.931 133,229.5C 131.951,230.517 130.784,230.684 129.5,230C 130.692,228.088 131.692,226.088 132.5,224C 131.584,223.626 130.75,223.126 130,222.5C 129.295,219.524 128.129,216.858 126.5,214.5C 126.579,213.07 126.246,211.736 125.5,210.5C 126.5,209.167 127.5,209.167 128.5,210.5C 129.707,214.287 131.207,217.954 133,221.5C 134.009,219.975 134.509,218.308 134.5,216.5 Z"/></g>
<g><path style="opacity:1" fill="#fe01dc" d="M 155.5,217.5 C 151.828,218.021 148.162,218.687 144.5,219.5C 144.709,220.086 145.043,220.586 145.5,221C 148.817,221.498 152.15,221.665 155.5,221.5C 155.5,222.5 155.5,223.5 155.5,224.5C 144,227.167 139.833,222.834 143,211.5C 146.578,209.234 150.412,208.9 154.5,210.5C 155.474,212.743 155.808,215.076 155.5,217.5 Z"/></g>
<g><path style="opacity:1" fill="#fe00dd" d="M 160.5,209.5 C 163.167,209.5 165.833,209.5 168.5,209.5C 168.5,210.5 168.5,211.5 168.5,212.5C 166.208,212.244 164.041,212.577 162,213.5C 161.825,217.211 161.325,220.878 160.5,224.5C 159.221,219.449 159.221,214.449 160.5,209.5 Z"/></g>
<g><path style="opacity:1" fill="#1c0018" d="M 145.5,212.5 C 147.857,212.337 150.19,212.503 152.5,213C 152.957,213.414 153.291,213.914 153.5,214.5C 150.5,215.833 147.5,215.833 144.5,214.5C 144.863,213.817 145.196,213.15 145.5,212.5 Z"/></g>
<g><path style="opacity:1" fill="#21011d" d="M 96.5,209.5 C 97.4345,210.568 97.7678,211.901 97.5,213.5C 88.1667,211.5 84.5,215.167 86.5,224.5C 87.5,224.5 88.5,224.5 89.5,224.5C 89.1984,221.941 89.5318,219.607 90.5,217.5C 90.5,220.167 90.5,222.833 90.5,225.5C 88.8333,225.5 87.1667,225.5 85.5,225.5C 82.4877,215.191 86.1543,210.857 96.5,212.5C 96.5,211.5 96.5,210.5 96.5,209.5 Z"/></g>
<g><path style="opacity:1" fill="#1f001c" d="M 126.5,214.5 C 128.129,216.858 129.295,219.524 130,222.5C 130.75,223.126 131.584,223.626 132.5,224C 131.692,226.088 130.692,228.088 129.5,230C 130.784,230.684 131.951,230.517 133,229.5C 133.898,226.931 135.065,224.598 136.5,222.5C 136.174,225.311 135.341,227.978 134,230.5C 132.301,231.406 130.467,231.739 128.5,231.5C 128.586,229.323 129.253,227.323 130.5,225.5C 128.379,222.138 127.045,218.471 126.5,214.5 Z"/></g>
<g><path style="opacity:1" fill="#1a0016" d="M 114.5,217.5 C 116.833,217.5 119.167,217.5 121.5,217.5C 121.5,218.833 121.5,220.167 121.5,221.5C 118.813,221.664 116.146,221.497 113.5,221C 113.043,220.586 112.709,220.086 112.5,219.5C 113.243,218.818 113.909,218.151 114.5,217.5 Z"/></g>
</svg>
